<?xml version="1.0" standalone="no"?>
<!DOCTYPE svg PUBLIC "-//W3C//DTD SVG 20010904//EN"
 "http://www.w3.org/TR/2001/REC-SVG-20010904/DTD/svg10.dtd">
<svg version="1.0" xmlns="http://www.w3.org/2000/svg"
 width="1000.000000pt" height="1000.000000pt" viewBox="0 0 1000.000000 1000.000000"
 preserveAspectRatio="xMidYMid meet">
<metadata>
Created by potrace 1.11, written by Peter Selinger 2001-2013
</metadata>
<g transform="translate(0.000000,1000.000000) scale(0.100000,-0.100000)"
fill="#000000" stroke="none">
<path d="M4560 9924 c-751 -68 -1478 -305 -2114 -688 -1171 -706 -1993 -1860
-2280 -3200 -120 -558 -140 -1190 -56 -1769 121 -829 473 -1648 995 -2317 710
-908 1724 -1541 2859 -1784 341 -74 658 -106 1036 -106 652 0 1234 110 1835
347 136 54 454 205 585 278 465 261 933 636 1270 1021 25 28 62 71 84 95 228
259 479 644 661 1014 343 698 505 1400 505 2185 0 785 -162 1487 -505 2185
-766 1559 -2270 2586 -4012 2740 -206 18 -660 18 -863 -1z"/>
</g>
</svg>
