<?xml version="1.0" standalone="no"?>
<!DOCTYPE svg PUBLIC "-//W3C//DTD SVG 20010904//EN"
 "http://www.w3.org/TR/2001/REC-SVG-20010904/DTD/svg10.dtd">
<svg version="1.0" xmlns="http://www.w3.org/2000/svg"
 width="448.000000pt" height="448.000000pt" viewBox="0 0 448.000000 448.000000"
 preserveAspectRatio="xMidYMid meet">
<metadata>
Created by potrace 1.11, written by Peter Selinger 2001-2013
</metadata>
<g transform="translate(0.000000,448.000000) scale(0.100000,-0.100000)"
fill="#000000" stroke="none">
<path d="M2130 3613 c-92 -13 -195 -39 -258 -65 -311 -129 -533 -439 -627
-874 l-17 -81 -122 -27 c-332 -76 -629 -212 -749 -345 -92 -102 -115 -219 -64
-322 33 -66 45 -80 127 -150 74 -62 219 -140 361 -193 140 -52 427 -124 599
-150 17 -2 24 -9 23 -22 -1 -10 -25 -107 -55 -216 l-53 -198 -30 -1 c-170 -3
-176 -4 -195 -27 -20 -24 -19 -58 3 -79 12 -12 100 -17 264 -14 49 1 53 3 59
29 4 15 22 83 41 152 19 69 36 133 38 142 6 30 47 172 56 194 7 19 12 21 51
14 256 -46 1013 -47 1316 -1 29 4 54 5 56 2 2 -3 34 -121 71 -261 38 -140 71
-258 75 -263 6 -7 109 -10 242 -8 67 1 91 19 86 65 -4 44 -35 56 -145 56 l-92
0 -11 43 c-6 23 -23 83 -36 132 -14 50 -32 117 -40 150 -8 33 -18 70 -24 82
-8 20 -5 22 48 33 31 6 130 26 219 45 440 95 748 256 846 440 17 31 22 58 22
120 0 70 -4 86 -28 128 -102 173 -381 320 -793 419 l-132 32 -7 44 c-19 126
-78 307 -143 437 -61 124 -113 198 -196 281 -136 135 -277 209 -481 249 -35 7
-268 13 -305 8z"/>
</g>
</svg>
